
<svg version="1.1" id="Layer_1" xmlns="http://www.w3.org/2000/svg" x="0" y="0" viewBox="0 0 200 116" xml:space="preserve"><style>.st7{fill:#fff}</style><path fill="none" d="M0 0h200v116H0z"/><linearGradient id="SVGID_1_" gradientUnits="userSpaceOnUse" x1="10.779" y1="127.95" x2="198.688" y2="127.95" gradientTransform="matrix(1 0 0 -1 0 212)"><stop offset="0" stop-color="#bfd0e9" stop-opacity=".4"/><stop offset="1" stop-color="#859cd6" stop-opacity=".3"/></linearGradient><path d="M46.6 55.3C4 55.3 2.1 80.7 26.7 85.6c18.2 3.6 52.6 27.2 93.8 27.2 21.7 0 40-3.2 58.6-9 16.1-5 32.3-17.5 4.6-21.6-40.3-6-98.5-26.9-137.1-26.9z" opacity=".3" fill="url(#SVGID_1_)"/><radialGradient id="SVGID_2_" cx="-653.94" cy="-3755.478" r="50.374" gradientTransform="matrix(1.1357 0 0 -.2406 878.28 -806.805)" gradientUnits="userSpaceOnUse"><stop offset="0" stop-color="#919fb9" stop-opacity=".6"/><stop offset=".191" stop-color="#95a3bc" stop-opacity=".485"/><stop offset=".392" stop-color="#a2aec4" stop-opacity=".365"/><stop offset=".597" stop-color="#b7c0d1" stop-opacity=".242"/><stop offset=".803" stop-color="#d4dae4" stop-opacity=".118"/><stop offset="1" stop-color="#f7f9fb" stop-opacity="0"/></radialGradient><ellipse cx="135.6" cy="96.8" rx="61.7" ry="12.9" opacity=".7" fill="url(#SVGID_2_)"/><linearGradient id="SVGID_3_" gradientUnits="userSpaceOnUse" x1="77.9" y1="128.45" x2="98.375" y2="128.45" gradientTransform="matrix(1 0 0 -1 0 212)"><stop offset="0" stop-color="#ffcb5d"/><stop offset="1" stop-color="#ff723f"/></linearGradient><path d="M98.4 84.8l-10.1 6.3v-4.7c-5.7 0-10.4-4.7-10.4-10.4H81c0 4 3.2 7.2 7.2 7.2v-4.7l10.2 6.3z" fill="url(#SVGID_3_)"/><linearGradient id="SVGID_4_" gradientUnits="userSpaceOnUse" x1="89.8" y1="143.9" x2="89.8" y2="211.2" gradientTransform="matrix(1 0 0 -1 0 212)"><stop offset="0" stop-color="#09bdf8"/><stop offset="1" stop-color="#1591d4"/></linearGradient><path d="M101.8.8h-33c-4 0-7.2 3.2-7.2 7.2v52.9c0 4 3.2 7.2 7.2 7.2h42c4 0 7.2-3.2 7.2-7.2v-44L101.8.8z" fill="url(#SVGID_4_)"/><linearGradient id="SVGID_5_" gradientUnits="userSpaceOnUse" x1="90.955" y1="166.1" x2="118.009" y2="166.1" gradientTransform="matrix(1 0 0 -1 0 212)"><stop offset="0" stop-color="#09bdf8" stop-opacity="0"/><stop offset="1" stop-color="#1591d4"/></linearGradient><path fill="url(#SVGID_5_)" d="M91 23.8h27.1V68H91z"/><linearGradient id="SVGID_6_" gradientUnits="userSpaceOnUse" x1="102.626" y1="195.826" x2="109.92" y2="203.12" gradientTransform="matrix(1 0 0 -1 0 212)"><stop offset="0" stop-color="#2651a1"/><stop offset="1" stop-color="#1e3c74"/></linearGradient><path d="M104.5 17H118L101.8.8v13.5c0 1.4 1.2 2.7 2.7 2.7z" fill="url(#SVGID_6_)"/><path class="st7" d="M81.3 37.2h-1V40h-2.4v-9.4h3.4c2.8 0 4.2 1.1 4.2 3.2s-1.5 3.4-4.2 3.4zm0-4.6h-1v2.8h1c1.3 0 1.8-.6 1.8-1.4s-.6-1.4-1.8-1.4zm8.5 7.4h-3.3v-9.4h3.3c3.6 0 5.6 1.4 5.6 4.6 0 3-1.9 4.8-5.6 4.8zm0-7.4h-.9v5.3h.9c2.2 0 3.2-.9 3.2-2.7 0-1.8-1-2.6-3.2-2.6zm13.3 0H99v2.3h3.7v2H99v3h-2.4v-9.4h6.5v2.1z"/><linearGradient id="SVGID_7_" gradientUnits="userSpaceOnUse" x1="135.5" y1="115.2" x2="135.5" y2="182.6" gradientTransform="matrix(1 0 0 -1 0 212)"><stop offset="0" stop-color="#2651a1"/><stop offset="1" stop-color="#1e3c74"/></linearGradient><path d="M157 96.8h-43c-4 0-7.3-3.3-7.3-7.3V36.7c0-4 3.3-7.3 7.3-7.3h43c4 0 7.3 3.3 7.3 7.3v52.8c0 4-3.2 7.3-7.3 7.3z" fill="url(#SVGID_7_)"/><linearGradient id="SVGID_8_" gradientUnits="userSpaceOnUse" x1="135.55" y1="132.7" x2="135.55" y2="169.05" gradientTransform="matrix(1 0 0 -1 0 212)"><stop offset="0" stop-color="#d2d8ee"/><stop offset="1" stop-color="#f1f7fb"/></linearGradient><path d="M154.1 51.3H117c-.8 0-1.5.7-1.5 1.5s.7 1.5 1.5 1.5h37.1c.8 0 1.5-.7 1.5-1.5s-.7-1.5-1.5-1.5zm0-8.3H117c-.8 0-1.5.7-1.5 1.5s.7 1.5 1.5 1.5h37.1c.8 0 1.5-.7 1.5-1.5 0-.9-.7-1.5-1.5-1.5zm0 16.6H117c-.8 0-1.5.7-1.5 1.5s.7 1.5 1.5 1.5h37.1c.8 0 1.5-.7 1.5-1.5s-.7-1.5-1.5-1.5zm-30 8.4H117c-.8 0-1.5.7-1.5 1.5s.7 1.5 1.5 1.5h7.1c.8 0 1.5-.7 1.5-1.5 0-.9-.6-1.5-1.5-1.5zm0 8.3H117c-.8 0-1.5.7-1.5 1.5s.7 1.5 1.5 1.5h7.1c.8 0 1.5-.7 1.5-1.5s-.6-1.5-1.5-1.5z" fill="url(#SVGID_8_)"/><path class="st7" d="M151.8 86.5h-4l-3.5-10.7-3.5 10.7h-4l-4-16.3h4.3l2 10.3 3.2-10.3h4l3.2 10.3 2-10.3h4.3l-4 16.3z"/></svg>
